# xmcd
#
# Track frame offsets: 
#        150
#        8745
#        18160
#        30812
#        41180
#        53613
#        65369
#        77557
#        87922
#        98963
#        109621
#        120337
#        130926
#        139965
#        149224
#        156073
#        166201
#        177061
#        187984
#        196572
#        208862
#        219654
#        229372
#        240397
#
# Disc length: 3350 seconds
#
# Revision: 3
# Processed by: cddbd v1.5.2PL0 Copyright (c) Steve Scherf et al.
# Submitted via: ExactAudioCopy v1.3
#
DISCID=3a0d1418
DTITLE=Buck Owens and his Buckaroos - Tall Dark Stranger_CD5
DYEAR=2012
DGENRE=Country
TTITLE0=Buck Owens - Too Old to Cut the Mustard
TTITLE1=Buck Owens - Wham Bam
TTITLE2=Buck Owens - Pfft You Were (Was) Gone
TTITLE3=Buck Owens - You're a Real Good Friend
TTITLE4=Buck Owens - Tobacco White Lightning and Women Blues No. 2
TTITLE5=Buck Owens - I Won't Go Huntin' with You Jake (But I'll Go Cha
TTITLE5=sin' Wimin)
TTITLE6=Buck Owens - Cigareets, Whuskey and Wild, Wild Women
TTITLE7=Buck Owens - Beautiful Morning Glory
TTITLE8=Buck Owens - I'll Still Be Waiting for You
TTITLE9=The Buckaroos - Daddy Frank (The Guitar Man)
TTITLE10=The Buckaroos - Today I Started Loving You Again
TTITLE11=The Buckaroos - The Fightin' Side of Me
TTITLE12=The Buckaroos - Silver Wings
TTITLE13=The Buckaroos - Okie from Muskogee
TTITLE14=The Buckaroos - The Legend of Bonnie and Clyde
TTITLE15=The Buckaroos - Hungry Eyes
TTITLE16=The Buckaroos - Swinging Doors
TTITLE17=The Buckaroos - I Take a Lot of Pride in What I Am
TTITLE18=The Buckaroos - Mama Tried
TTITLE19=Buck Owens - Made in Japan
TTITLE20=Buck Owens - Arms Full of Empty
TTITLE21=Buck Owens - Ain't It Amazing, Gracie
TTITLE22=Buck Owens - Looking Back to See
TTITLE23=Buck Owens - You Ain't Gonna Have Ol' Buck to Kick Around No 
TTITLE23=More
EXTD=
EXTT0=
EXTT1=
EXTT2=
EXTT3=
EXTT4=
EXTT5=
EXTT6=
EXTT7=
EXTT8=
EXTT9=
EXTT10=
EXTT11=
EXTT12=
EXTT13=
EXTT14=
EXTT15=
EXTT16=
EXTT17=
EXTT18=
EXTT19=
EXTT20=
EXTT21=
EXTT22=
EXTT23=
PLAYORDER=
